REM DIRINDEX 1\2\6,1\2\7,1\2\8,1\3\9,1\3\10,1\3\11,1\4\12,1\4\13,1\4\14,1\5\15,1\5\16,1\5\17,1\5\18
REM DIRNAME folder01,folder02,folder03,folder04,folder05,folder06,folder07,folder08,folder09,folder10,folder11,folder12,folder13,folder14,folder15,folder16,folder17,folder18
TITLE ""
FILE "2Q_j_1653-1666.mp3" MP3
  TRACK 01 AUDIO
    TITLE "6:cjc019_1422"
    INDEX 01 00:00:00
  TRACK 02 AUDIO
    TITLE "0:"
    INDEX 01 00:01:30
  TRACK 03 AUDIO
    TITLE "7:cjc019_1423"
    INDEX 01 00:02:10
  TRACK 04 AUDIO
    TITLE "0:"
    INDEX 01 00:03:72
  TRACK 05 AUDIO
    TITLE "8:cjc019_1424"
    INDEX 01 00:04:54
  TRACK 06 AUDIO
    TITLE "0:"
    INDEX 01 00:08:24
  TRACK 07 AUDIO
    TITLE "6:cjc019_1425"
    INDEX 01 00:09:06
  TRACK 08 AUDIO
    TITLE "0:"
    INDEX 01 00:10:70
  TRACK 09 AUDIO
    TITLE "7:cjc019_1426"
    INDEX 01 00:11:60
  TRACK 10 AUDIO
    TITLE "0:"
    INDEX 01 00:13:55
  TRACK 11 AUDIO
    TITLE "8:cjc019_1427"
    INDEX 01 00:14:33
  TRACK 12 AUDIO
    TITLE "0:"
    INDEX 01 00:17:39
  TRACK 13 AUDIO
    TITLE "6:cjc019_1428"
    INDEX 01 00:18:19
  TRACK 14 AUDIO
    TITLE "0:"
    INDEX 01 00:20:06
  TRACK 15 AUDIO
    TITLE "7:cjc019_1429"
    INDEX 01 00:20:63
  TRACK 16 AUDIO
    TITLE "0:"
    INDEX 01 00:23:18
  TRACK 17 AUDIO
    TITLE "8:cjc019_1430"
    INDEX 01 00:23:73
  TRACK 18 AUDIO
    TITLE "0:"
    INDEX 01 00:26:58
  TRACK 19 AUDIO
    TITLE "6:cjc019_1431"
    INDEX 01 00:27:41
  TRACK 20 AUDIO
    TITLE "0:"
    INDEX 01 00:29:21
  TRACK 21 AUDIO
    TITLE "7:cjc019_1432"
    INDEX 01 00:30:08
  TRACK 22 AUDIO
    TITLE "0:"
    INDEX 01 00:32:03
  TRACK 23 AUDIO
    TITLE "8:cjc019_1433"
    INDEX 01 00:32:60
  TRACK 24 AUDIO
    TITLE "0:"
    INDEX 01 00:38:33
  TRACK 25 AUDIO
    TITLE "6:cjc019_1434"
    INDEX 01 00:39:13
  TRACK 26 AUDIO
    TITLE "0:"
    INDEX 01 00:40:64
  TRACK 27 AUDIO
    TITLE "7:cjc019_1435"
    INDEX 01 00:41:40
  TRACK 28 AUDIO
    TITLE "0:"
    INDEX 01 00:43:48
  TRACK 29 AUDIO
    TITLE "8:cjc019_1436"
    INDEX 01 00:44:24
  TRACK 30 AUDIO
    TITLE "0:"
    INDEX 01 00:49:12
  TRACK 31 AUDIO
    TITLE "6:cjc019_1437"
    INDEX 01 00:49:61
  TRACK 32 AUDIO
    TITLE "0:"
    INDEX 01 00:51:52
  TRACK 33 AUDIO
    TITLE "7:cjc019_1438"
    INDEX 01 00:52:37
  TRACK 34 AUDIO
    TITLE "0:"
    INDEX 01 00:54:09
  TRACK 35 AUDIO
    TITLE "8:cjc019_1439"
    INDEX 01 00:54:66
  TRACK 36 AUDIO
    TITLE "0:"
    INDEX 01 00:58:30
  TRACK 37 AUDIO
    TITLE "6:cjc019_1440"
    INDEX 01 00:59:14
  TRACK 38 AUDIO
    TITLE "0:"
    INDEX 01 01:01:03
  TRACK 39 AUDIO
    TITLE "7:cjc019_1441"
    INDEX 01 01:01:62
  TRACK 40 AUDIO
    TITLE "0:"
    INDEX 01 01:03:00
  TRACK 41 AUDIO
    TITLE "8:cjc019_1442"
    INDEX 01 01:03:61
  TRACK 42 AUDIO
    TITLE "0:"
    INDEX 01 01:06:49
  TRACK 43 AUDIO
    TITLE "6:cjc019_1443"
    INDEX 01 01:07:31
  TRACK 44 AUDIO
    TITLE "0:"
    INDEX 01 01:09:22
  TRACK 45 AUDIO
    TITLE "7:cjc019_1444"
    INDEX 01 01:10:02
  TRACK 46 AUDIO
    TITLE "0:"
    INDEX 01 01:13:12
  TRACK 47 AUDIO
    TITLE "8:cjc019_1445"
    INDEX 01 01:13:67
  TRACK 48 AUDIO
    TITLE "0:"
    INDEX 01 01:16:54
  TRACK 49 AUDIO
    TITLE "6:cjc019_1446"
    INDEX 01 01:17:35
  TRACK 50 AUDIO
    TITLE "0:"
    INDEX 01 01:19:36
  TRACK 51 AUDIO
    TITLE "7:cjc019_1447"
    INDEX 01 01:20:12
  TRACK 52 AUDIO
    TITLE "0:"
    INDEX 01 01:23:54
  TRACK 53 AUDIO
    TITLE "8:cjc019_1448"
    INDEX 01 01:24:32
  TRACK 54 AUDIO
    TITLE "0:"
    INDEX 01 01:29:39
  TRACK 55 AUDIO
    TITLE "6:cjc019_1449"
    INDEX 01 01:30:17
  TRACK 56 AUDIO
    TITLE "0:"
    INDEX 01 01:31:61
  TRACK 57 AUDIO
    TITLE "7:cjc019_1450"
    INDEX 01 01:32:43
  TRACK 58 AUDIO
    TITLE "0:"
    INDEX 01 01:34:36
  TRACK 59 AUDIO
    TITLE "8:cjc019_1451"
    INDEX 01 01:35:18
  TRACK 60 AUDIO
    TITLE "0:"
    INDEX 01 01:39:45
  TRACK 61 AUDIO
    TITLE "6:cjc019_1452"
    INDEX 01 01:40:25
  TRACK 62 AUDIO
    TITLE "0:"
    INDEX 01 01:42:16
  TRACK 63 AUDIO
    TITLE "7:cjc019_1453"
    INDEX 01 01:42:73
  TRACK 64 AUDIO
    TITLE "0:"
    INDEX 01 01:44:19
  TRACK 65 AUDIO
    TITLE "8:cjc019_1454"
    INDEX 01 01:44:73
  TRACK 66 AUDIO
    TITLE "0:"
    INDEX 01 01:49:24
  TRACK 67 AUDIO
    TITLE "6:cjc019_1455"
    INDEX 01 01:50:07
  TRACK 68 AUDIO
    TITLE "0:"
    INDEX 01 01:52:02
  TRACK 69 AUDIO
    TITLE "7:cjc019_1456"
    INDEX 01 01:52:55
  TRACK 70 AUDIO
    TITLE "0:"
    INDEX 01 01:54:25
  TRACK 71 AUDIO
    TITLE "8:cjc019_1457"
    INDEX 01 01:55:05
  TRACK 72 AUDIO
    TITLE "0:"
    INDEX 01 01:59:69
  TRACK 73 AUDIO
    TITLE "6:cjc019_1458"
    INDEX 01 02:00:47
  TRACK 74 AUDIO
    TITLE "0:"
    INDEX 01 02:02:09
  TRACK 75 AUDIO
    TITLE "7:cjc019_1459"
    INDEX 01 02:02:71
  TRACK 76 AUDIO
    TITLE "0:"
    INDEX 01 02:05:13
  TRACK 77 AUDIO
    TITLE "8:cjc019_1460"
    INDEX 01 02:05:72
  TRACK 78 AUDIO
    TITLE "0:"
    INDEX 01 02:08:72
  TRACK 79 AUDIO
    TITLE "6:cjc019_1461"
    INDEX 01 02:09:58
  TRACK 80 AUDIO
    TITLE "0:"
    INDEX 01 02:11:27
  TRACK 81 AUDIO
    TITLE "7:cjc019_1462"
    INDEX 01 02:12:11
  TRACK 82 AUDIO
    TITLE "0:"
    INDEX 01 02:13:30
  TRACK 83 AUDIO
    TITLE "8:cjc019_1463"
    INDEX 01 02:14:04
  TRACK 84 AUDIO
    TITLE "0:"
    INDEX 01 02:18:43
